<svg width="463" height="463" viewBox="0 0 463 463" fill="none" xmlns="http://www.w3.org/2000/svg">
<path d="M100.695 127.261C112.351 103.507 141.057 93.6992 164.811 105.355C188.565 117.011 198.373 145.717 186.717 169.471L104.912 336.184C93.2564 359.938 64.5508 369.746 40.7966 358.09C17.0425 346.434 7.23489 317.728 18.8908 293.974L100.695 127.261Z" fill="#0085FF"/>
<path d="M250.835 127.261C262.491 103.507 291.197 93.6992 314.951 105.355C338.705 117.011 348.513 145.717 336.857 169.471L255.052 336.184C243.396 359.938 214.691 369.746 190.936 358.09C167.182 346.434 157.375 317.728 169.031 293.974L250.835 127.261Z" fill="#5BB0FF"/>
<path d="M319.763 294.559C319.763 259.147 348.47 230.44 383.882 230.44C419.293 230.44 448 259.147 448 294.559C448 329.97 419.293 358.677 383.882 358.677C348.47 358.677 319.763 329.97 319.763 294.559Z" fill="#EC5656"/>
</svg>
